<svg xmlns="http://www.w3.org/2000/svg" width="58.728" height="71.057" viewBox="0 0 58.728 71.057">
  <g id="noun_think_4272723" transform="translate(-12.977 -5.219)">
    <path id="Path_29812" data-name="Path 29812" d="M68.958,44.71a24.521,24.521,0,0,1-2.792-4.077,12.287,12.287,0,0,0,.2-2.5c-.127-5.2-3.553-8.78-4.846-10.128a20.015,20.015,0,0,0-9.454-5.433.673.673,0,1,0-.349,1.3,18.793,18.793,0,0,1,8.835,5.068c1.19,1.245,4.354,4.553,4.473,9.232a11.36,11.36,0,0,1-.214,2.443.693.693,0,0,0,.056.42,24.408,24.408,0,0,0,3.061,4.545l1.182,1.412c2.34,2.776,2.942,3.529,2.768,4.1s-1.079.936-1.951,1.285c-1.11.444-2.371.952-2.451,2.189a5.372,5.372,0,0,0,.968,2.808c.412.682.357.841.349.88a6.213,6.213,0,0,1-1.11.92A.669.669,0,0,0,67.7,60.3a2.865,2.865,0,0,1,.88.825,1.522,1.522,0,0,1-.206.222c-.1.1-.222.23-.357.389a.352.352,0,0,0-.063.087,3.772,3.772,0,0,0-.666,3.426l.293,1.095a4.6,4.6,0,0,1,.143,2.475,3,3,0,0,1-1.4,1.65,5.733,5.733,0,0,1-3.038.825H56.379a.68.68,0,0,0-.547.278,12.18,12.18,0,0,0-1.475,3.569,22.271,22.271,0,0,0-.666,3.355H27.35c.2-1.095.5-2.76.88-4.767l.048-.254c1.229-6.686,1.6-8.709.9-11.294a12.564,12.564,0,0,0-2.126-4.259l-.246-.349c-3.109-4.5-5.822-12.682-4.711-19a.672.672,0,1,0-1.325-.23c-1.182,6.742,1.586,15.157,4.925,19.995l.254.365a11.181,11.181,0,0,1,1.927,3.839c.627,2.3.262,4.251-.92,10.7l-.048.254c-.389,2.062-.7,3.759-.9,4.854l-.127.714a.7.7,0,0,0,.143.555.683.683,0,0,0,.516.246H54.309a.678.678,0,0,0,.674-.642,18.59,18.59,0,0,1,.674-3.7,13.291,13.291,0,0,1,1.1-2.855h6.527a7.162,7.162,0,0,0,3.767-1.031,4.226,4.226,0,0,0,1.983-2.443,5.983,5.983,0,0,0-.151-3.18l-.293-1.095a2.47,2.47,0,0,1,.444-2.252.373.373,0,0,0,.048-.071c.1-.111.19-.206.27-.286a1.568,1.568,0,0,0,.571-1.079,2.111,2.111,0,0,0-.753-1.459c.761-.611.849-.92.872-1.007A2.372,2.372,0,0,0,69.6,56.7a4.292,4.292,0,0,1-.785-2.038c.024-.381.865-.722,1.61-1.015,1.11-.444,2.371-.952,2.736-2.149.389-1.293-.333-2.157-3.03-5.354Z" transform="translate(-1.554 -3.586)" fill="#fff"/>
    <path id="Path_29813" data-name="Path 29813" d="M35.626,19.417a.668.668,0,0,0-.293.976,9.906,9.906,0,0,0,1.34,1.681,9.579,9.579,0,0,0,1.673,1.332.684.684,0,0,0,.555.079.656.656,0,0,0,.42-.373,2.129,2.129,0,0,1,2.5-1.19A2.1,2.1,0,0,1,43.383,24.2a.652.652,0,0,0,.174.531.685.685,0,0,0,.492.214h.024a9.871,9.871,0,0,0,4.156-1.11.662.662,0,0,0,.341-.452.7.7,0,0,0-.119-.555,2.115,2.115,0,0,1,2.958-2.958.65.65,0,0,0,.547.111.67.67,0,0,0,.444-.341,9.7,9.7,0,0,0,1.11-4.14.683.683,0,0,0-.214-.523.651.651,0,0,0-.539-.174,2.124,2.124,0,0,1-1.087-4.053.668.668,0,0,0,.293-.976,8.958,8.958,0,0,0-1.332-1.666,9.075,9.075,0,0,0-1.689-1.348.688.688,0,0,0-.555-.079.656.656,0,0,0-.42.373,2.124,2.124,0,0,1-4.053-1.087.652.652,0,0,0-.174-.531.644.644,0,0,0-.516-.214,9.765,9.765,0,0,0-4.148,1.1.681.681,0,0,0-.349.444.666.666,0,0,0,.119.555,2.087,2.087,0,0,1-.214,2.752,2.114,2.114,0,0,1-2.752.206.66.66,0,0,0-.555-.119.69.69,0,0,0-.452.349,9.9,9.9,0,0,0-1.1,4.164.682.682,0,0,0,.753.69,2.113,2.113,0,0,1,2.268,1.562v.008A2.083,2.083,0,0,1,35.626,19.417Zm2.49-2.847a3.5,3.5,0,0,0-2.927-2.546,8.521,8.521,0,0,1,.6-2.26,3.47,3.47,0,0,0,4.553-4.545,8.234,8.234,0,0,1,2.252-.6,3.477,3.477,0,0,0,6.218,1.673,8.48,8.48,0,0,1,.888.769,6.858,6.858,0,0,1,.753.872,3.473,3.473,0,0,0,1.666,6.21,8.446,8.446,0,0,1-.6,2.252,3.468,3.468,0,0,0-4.545,4.545,8.608,8.608,0,0,1-2.252.6A3.475,3.475,0,0,0,41.289,20.5a3.529,3.529,0,0,0-2.776,1.372,7.409,7.409,0,0,1-.872-.761,8.084,8.084,0,0,1-.761-.88A3.483,3.483,0,0,0,38.116,16.569Z" transform="translate(-4.301)" fill="#fff"/>
    <path id="Path_29814" data-name="Path 29814" d="M45.384,20.056a3.24,3.24,0,0,0,2.3-5.536,3.328,3.328,0,0,0-4.592,0,3.24,3.24,0,0,0,2.292,5.536Zm-1.34-4.584a1.9,1.9,0,1,1,2.689,2.689,1.9,1.9,0,0,1-2.689-2.689Z" transform="translate(-6.033 -1.734)" fill="#fff"/>
    <path id="Path_29815" data-name="Path 29815" d="M47.249,40.34A6.143,6.143,0,1,0,53.4,46.487,6.15,6.15,0,0,0,47.249,40.34Zm0,10.937a4.794,4.794,0,1,1,4.8-4.79A4.8,4.8,0,0,1,47.249,51.277Z" transform="translate(-5.82 -7.266)" fill="#fff"/>
    <path id="Path_29816" data-name="Path 29816" d="M59.291,41.132a.679.679,0,0,0,.571-.841A14.833,14.833,0,0,0,58.236,36.4a.671.671,0,0,0-.452-.317.686.686,0,0,0-.539.127,3.082,3.082,0,0,1-4.315-4.33.657.657,0,0,0,.127-.539.671.671,0,0,0-.317-.452,15.315,15.315,0,0,0-3.878-1.618.666.666,0,0,0-.547.1.706.706,0,0,0-.293.476,3.087,3.087,0,0,1-6.123,0,.679.679,0,0,0-.841-.571,15.536,15.536,0,0,0-3.878,1.61.647.647,0,0,0-.317.452.657.657,0,0,0,.127.539A3.078,3.078,0,0,1,32.674,36.2a.657.657,0,0,0-.539-.127.671.671,0,0,0-.452.317,14.977,14.977,0,0,0-1.618,3.894.667.667,0,0,0,.571.833,3.083,3.083,0,0,1,0,6.115.686.686,0,0,0-.476.286.666.666,0,0,0-.1.547,14.708,14.708,0,0,0,1.618,3.894.671.671,0,0,0,.452.317.686.686,0,0,0,.539-.127A3.082,3.082,0,0,1,37,56.471a.657.657,0,0,0-.127.539.671.671,0,0,0,.317.452,15.128,15.128,0,0,0,3.878,1.61.619.619,0,0,0,.174.024.632.632,0,0,0,.373-.119.679.679,0,0,0,.293-.476,3.087,3.087,0,0,1,6.123,0,.679.679,0,0,0,.841.571,15.175,15.175,0,0,0,3.878-1.61.671.671,0,0,0,.317-.452.686.686,0,0,0-.127-.539,3.082,3.082,0,0,1,4.315-4.33.657.657,0,0,0,.539.127.671.671,0,0,0,.452-.317,15.389,15.389,0,0,0,1.626-3.886.666.666,0,0,0-.1-.547.679.679,0,0,0-.476-.293,3.07,3.07,0,0,1-.008-6.091Zm-.928,7.289a13.463,13.463,0,0,1-.944,2.26,4.428,4.428,0,0,0-5.972,5.98,14.346,14.346,0,0,1-2.252.936,4.443,4.443,0,0,0-8.471,0,14.346,14.346,0,0,1-2.252-.936,4.426,4.426,0,0,0-5.98-5.972,13.056,13.056,0,0,1-.936-2.26,4.434,4.434,0,0,0,0-8.463,13.71,13.71,0,0,1,.936-2.26,4.431,4.431,0,0,0,5.98-5.98,14.346,14.346,0,0,1,2.252-.936,4.443,4.443,0,0,0,8.471,0,13.744,13.744,0,0,1,2.252.936,4.428,4.428,0,0,0,5.972,5.98,13.463,13.463,0,0,1,.944,2.26,4.432,4.432,0,0,0,0,8.455Z" transform="translate(-3.53 -4.972)" fill="#fff"/>
    <path id="Path_29817" data-name="Path 29817" d="M16.62,33.693a.662.662,0,0,0,.555.111.681.681,0,0,0,.444-.349A1.856,1.856,0,0,1,21.1,34.613a.665.665,0,0,0,.143.539.694.694,0,0,0,.508.246h.174a9.051,9.051,0,0,0,3.64-.777.656.656,0,0,0,.373-.42.672.672,0,0,0-.079-.563A1.831,1.831,0,0,1,26.2,31.25h0a1.84,1.84,0,0,1,2.4-.04.67.67,0,0,0,.539.151.683.683,0,0,0,.468-.309,8.647,8.647,0,0,0,.841-1.777,8.3,8.3,0,0,0,.4-1.935.678.678,0,0,0-.182-.523.634.634,0,0,0-.516-.206,1.819,1.819,0,0,1-1.9-1.491,1.86,1.86,0,0,1,1.166-2.11.678.678,0,0,0,.357-.96,9,9,0,0,0-2.578-2.911.657.657,0,0,0-.555-.111.681.681,0,0,0-.444.349A1.857,1.857,0,0,1,22.719,18.2a.648.648,0,0,0-.143-.547.667.667,0,0,0-.508-.246,8.768,8.768,0,0,0-3.823.793.683.683,0,0,0-.286.983,1.861,1.861,0,0,1-2.744,2.443.658.658,0,0,0-.539-.143.668.668,0,0,0-.46.309,8.942,8.942,0,0,0-.833,1.777,7.973,7.973,0,0,0-.4,1.927.685.685,0,0,0,.19.523.732.732,0,0,0,.516.206,1.854,1.854,0,0,1,.714,3.593.655.655,0,0,0-.4.4.668.668,0,0,0,.04.563A9.209,9.209,0,0,0,16.62,33.693Zm.27-6.258a3.212,3.212,0,0,0-2.482-2.5,7.2,7.2,0,0,1,.246-.944,9.515,9.515,0,0,1,.373-.912,3.208,3.208,0,0,0,4.4-3.91,7.717,7.717,0,0,1,1.919-.4,3.236,3.236,0,0,0,2.181,2.776,3.185,3.185,0,0,0,3.4-.9,7.819,7.819,0,0,1,1.293,1.459,3.2,3.2,0,0,0-1.3,3.26,3.159,3.159,0,0,0,2.482,2.506,6.446,6.446,0,0,1-.246.952,7.473,7.473,0,0,1-.373.9,3.207,3.207,0,0,0-4.41,3.894,7.743,7.743,0,0,1-1.911.4,3.2,3.2,0,0,0-2.173-2.768,3.337,3.337,0,0,0-1.031-.167,3.2,3.2,0,0,0-2.387,1.071A8.043,8.043,0,0,1,15.581,30.7,3.177,3.177,0,0,0,16.89,27.435Z" transform="translate(0 -2.522)" fill="#fff"/>
    <path id="Path_29818" data-name="Path 29818" d="M22.506,30.818a3.032,3.032,0,0,0,.952.159,2.916,2.916,0,0,0,1.332-.317A3,3,0,0,0,26.3,28.93a2.937,2.937,0,0,0-.167-2.284A3,3,0,0,0,24.4,25.139a2.971,2.971,0,0,0-2.3.167,2.92,2.92,0,0,0-1.483,1.721A3,3,0,0,0,22.506,30.818ZM21.9,27.439A1.576,1.576,0,0,1,22.7,26.5a1.658,1.658,0,0,1,.746-.174,1.685,1.685,0,0,1,.523.087A1.666,1.666,0,0,1,25.021,28.5h0a1.658,1.658,0,0,1-.825.952,1.6,1.6,0,0,1-1.253.087A1.656,1.656,0,0,1,21.9,27.439Z" transform="translate(-1.548 -4.089)" fill="#fff"/>
  </g>
</svg>
