<svg xmlns="http://www.w3.org/2000/svg" width="90.3" height="78.489" viewBox="0 0 90.3 78.489">
  <g id="noun_Community_1150655" transform="translate(-4.85 -9.756)">
    <path id="Path_29759" data-name="Path 29759" d="M20.851,64.639A9.942,9.942,0,1,0,10.909,54.7,9.953,9.953,0,0,0,20.851,64.639Zm0-16.884A6.941,6.941,0,1,1,13.909,54.7,6.949,6.949,0,0,1,20.851,47.755Z" fill="#fff" stroke="#fff" stroke-width="0.3"/>
    <path id="Path_29760" data-name="Path 29760" d="M20.851,67.367A15.869,15.869,0,0,0,5,83.218,4.883,4.883,0,0,0,9.877,88.1H31.826A4.882,4.882,0,0,0,36.7,83.218,15.869,15.869,0,0,0,20.851,67.367ZM31.826,85.1H9.877A1.879,1.879,0,0,1,8,83.218a12.851,12.851,0,0,1,25.7,0A1.879,1.879,0,0,1,31.826,85.1Z" fill="#fff" stroke="#fff" stroke-width="0.3"/>
    <path id="Path_29761" data-name="Path 29761" d="M50,46.092a9.941,9.941,0,1,0-9.942-9.941A9.953,9.953,0,0,0,50,46.092Zm0-16.884a6.942,6.942,0,1,1-6.942,6.942A6.95,6.95,0,0,1,50,29.208Z" fill="#fff" stroke="#fff" stroke-width="0.3"/>
    <path id="Path_29762" data-name="Path 29762" d="M65.851,64.672a15.851,15.851,0,1,0-31.7,0,4.883,4.883,0,0,0,4.876,4.877H60.974A4.882,4.882,0,0,0,65.851,64.672Zm-4.876,1.877H39.025a1.878,1.878,0,0,1-1.876-1.877,12.851,12.851,0,1,1,25.7,0A1.879,1.879,0,0,1,60.975,66.549Z" fill="#fff" stroke="#fff" stroke-width="0.3"/>
    <path id="Path_29763" data-name="Path 29763" d="M79.149,64.639A9.942,9.942,0,1,0,69.207,54.7,9.953,9.953,0,0,0,79.149,64.639Zm0-16.884A6.941,6.941,0,1,1,72.207,54.7,6.949,6.949,0,0,1,79.149,47.755Z" fill="#fff" stroke="#fff" stroke-width="0.3"/>
    <path id="Path_29764" data-name="Path 29764" d="M79.149,67.367A15.869,15.869,0,0,0,63.3,83.218a4.883,4.883,0,0,0,4.876,4.877H90.123A4.883,4.883,0,0,0,95,83.218,15.869,15.869,0,0,0,79.149,67.367ZM90.123,85.1H68.174A1.878,1.878,0,0,1,66.3,83.218a12.851,12.851,0,0,1,25.7,0A1.879,1.879,0,0,1,90.123,85.1Z" fill="#fff" stroke="#fff" stroke-width="0.3"/>
    <path id="Path_29765" data-name="Path 29765" d="M50,20.677a1.5,1.5,0,0,0,1.5-1.5V11.406a1.5,1.5,0,0,0-3,0v7.771A1.5,1.5,0,0,0,50,20.677Z" fill="#fff" stroke="#fff" stroke-width="0.3"/>
    <path id="Path_29766" data-name="Path 29766" d="M73.129,30.257a1.5,1.5,0,0,0,1.061-.439l5.5-5.495A1.5,1.5,0,1,0,77.564,22.2l-5.5,5.5a1.5,1.5,0,0,0,1.06,2.56Z" fill="#fff" stroke="#fff" stroke-width="0.3"/>
    <path id="Path_29767" data-name="Path 29767" d="M25.811,29.817A1.5,1.5,0,0,0,27.933,27.7L22.438,22.2a1.5,1.5,0,0,0-2.121,2.121Z" fill="#fff" stroke="#fff" stroke-width="0.3"/>
    <path id="Path_29768" data-name="Path 29768" d="M36.1,22.24a1.5,1.5,0,0,0,2.772-1.148L35.9,13.912a1.5,1.5,0,1,0-2.772,1.148Z" fill="#fff" stroke="#fff" stroke-width="0.3"/>
    <path id="Path_29769" data-name="Path 29769" d="M61.943,23.052a1.5,1.5,0,0,0,1.96-.812l2.974-7.18a1.5,1.5,0,1,0-2.772-1.148l-2.974,7.18A1.5,1.5,0,0,0,61.943,23.052Z" fill="#fff" stroke="#fff" stroke-width="0.3"/>
  </g>
</svg>
