<svg xmlns="http://www.w3.org/2000/svg" width="82.886" height="83.014" viewBox="0 0 82.886 83.014">
  <g id="Group_1" data-name="Group 1" transform="translate(0)">
    <path id="Path_1" data-name="Path 1" d="M63.478,44.715l.938-.938a.412.412,0,0,1,.6,0l4.261,4.261a.412.412,0,0,1,0,.6l-.938.938a.412.412,0,0,1-.6,0l-4.261-4.261a.412.412,0,0,1,0-.6Z" transform="translate(-13.746 -8.365)" fill="#fff"/>
    <path id="Path_2" data-name="Path 2" d="M53.378,34.615l.938-.938a.412.412,0,0,1,.6,0l4.261,4.261a.412.412,0,0,1,0,.6l-.938.938a.412.412,0,0,1-.6,0l-4.261-4.261a.412.412,0,0,1,0-.6Z" transform="translate(-12.255 -6.873)" fill="#fff"/>
    <path id="Path_3" data-name="Path 3" d="M30.878,47.515l.938-.938a.412.412,0,0,1,.6,0l21.9,21.393a.412.412,0,0,1,0,.6l-.938.938a.412.412,0,0,1-.6,0l-21.9-21.393a.412.412,0,0,1,0-.6C30.793,47.6,30.793,47.515,30.878,47.515Z" transform="translate(-8.931 -8.779)" fill="#ea4418"/>
    <path id="Path_4" data-name="Path 4" d="M36.389,41.226l.938-.938a.536.536,0,0,1,.511,0l21.9,21.393c.17.17.17.426,0,.511l-.938.938a.412.412,0,0,1-.6,0L36.389,41.738a.544.544,0,0,1,0-.511Z" transform="translate(-9.755 -7.859)" fill="#ea4418"/>
    <path id="Path_5" data-name="Path 5" d="M24.878,54.015l.938-.938a.412.412,0,0,1,.6,0l21.9,21.393a.412.412,0,0,1,0,.6L47.293,76a.412.412,0,0,1-.6,0L24.878,54.527a.32.32,0,0,1,0-.511Z" transform="translate(-8.045 -9.739)" fill="#ea4418"/>
    <path id="Path_6" data-name="Path 6" d="M73.589,55.015l.938-.938a.412.412,0,0,1,.6,0l4.261,4.261a.412.412,0,0,1,0,.6l-.938.938a.412.412,0,0,1-.6,0l-4.261-4.261a.728.728,0,0,1,0-.6Z" transform="translate(-15.249 -9.886)" fill="#fff"/>
    <path id="Path_7" data-name="Path 7" d="M87.951,33.146,79,24.111l-.767.767a6.7,6.7,0,0,1-3.75,2.131,15.214,15.214,0,0,1-1.96.17,6.451,6.451,0,0,1-1.278-.085,8.949,8.949,0,0,1-8.012-9.2c0-2.642.511-4.006,2.3-5.71l.767-.767L57.268,2.378c-.17-.17-.426-.17-.511,0L5.278,53.856c-.17.17-.17.426,0,.511L14.227,63.4l.767-.767a6.818,6.818,0,0,1,3.153-1.96,9.1,9.1,0,0,1,2.131-.256,9.46,9.46,0,0,1,9.716,9.29v.341a6.8,6.8,0,0,1-2.3,5.369l-.767.767,8.949,8.949a.412.412,0,0,0,.6,0L85.905,35.7h-.426L84.627,34,36.557,82.152a.412.412,0,0,1-.6,0l-5.966-5.966.511-.682a8.833,8.833,0,0,0,1.619-5.8,11.122,11.122,0,0,0-9.716-11.335c-.6-.085-1.108-.085-1.7-.17a10.019,10.019,0,0,0-4.176.682,10.042,10.042,0,0,0-1.619.938l-.682.511L8.261,54.368a.412.412,0,0,1,0-.6L38.517,23.429c.17-.17.426-.17.511,0l3.665,3.665a.412.412,0,0,0,.6,0l.938-.938a.412.412,0,0,0,0-.6l-3.665-3.75c-.17-.17-.17-.426,0-.511L56.671,5.361a.412.412,0,0,1,.6,0l5.966,5.966-.511.682A8.833,8.833,0,0,0,61.1,17.8a10.963,10.963,0,0,0,7.245,10.654,11.691,11.691,0,0,0,4.176.767,8.833,8.833,0,0,0,5.8-1.619L79,27.094l5.966,5.966c.17.17.17.426,0,.511l-2.557,2.557H82.5l1.364,1.534,4.176-4.176s0-.256-.085-.341Z" transform="translate(-5.15 -2.25)" fill="#fff"/>
  </g>
</svg>
