<svg id="speakers-1a64db699a404162ce8878eaf17a86d2e3ffe1e70129d4ffc5a2407dc9eda521" xmlns="http://www.w3.org/2000/svg" width="78.894" height="88.801" viewBox="0 0 78.894 88.801">
  <path id="Path_30079" data-name="Path 30079" d="M48.111,33.113l6.021-5.319L43.8,17.456,33.24,29.05l-1.51-1.393L42.984,15.339v-.117a14.179,14.179,0,0,1,2.127-8.584l.074-.117V6.382a3.385,3.385,0,0,1,.862-3.617l.755-.7a3.414,3.414,0,0,1,2.319-.9,3.329,3.329,0,0,1,1.468.34l.128.064.128-.064A14.275,14.275,0,0,1,69.991,20.647l-.064.128.064.128a3.393,3.393,0,0,1-.606,3.712l-.7.755a3.393,3.393,0,0,1-2.489,1.064,3.191,3.191,0,0,1-1.064-.181H65l-.117.074a14.19,14.19,0,0,1-7.648,2.223h-.862l-6.914,6.1ZM46.345,8.648a12.35,12.35,0,0,0-1.287,6.978v.3L55.61,26.476H56.1c.372,0,.745.053,1.064.053a12.349,12.349,0,0,0,5.7-1.372l.351-.191L46.537,8.244Zm2.766-5.457a1.372,1.372,0,0,0-.925.362l-.755.7a1.34,1.34,0,0,0,0,1.947L65.236,24.051a1.308,1.308,0,0,0,.957.4,1.372,1.372,0,0,0,1-.436l.691-.755a1.351,1.351,0,0,0,0-1.883L50.1,3.6a1.34,1.34,0,0,0-.989-.4Zm8.105-1.159a12.254,12.254,0,0,0-4.414.819l-.415.16L68.481,19.147l.16-.415A12.217,12.217,0,0,0,57.216,2.042Z" transform="translate(2.022 0.002)" fill="#ea4418"/>
  <path id="Path_30080" data-name="Path 30080" d="M6.946,69.589a3.01,3.01,0,0,1-2.127-.872L.883,64.8a3.021,3.021,0,0,1-.1-4.17L9.3,51.41l1.457,1.447L2.3,62a.989.989,0,0,0,0,1.351L6.223,67.27a.968.968,0,0,0,.691.287,1,1,0,0,0,.638-.234l10.031-8.744a5.648,5.648,0,0,0,3.063.064L8.914,68.876a3.063,3.063,0,0,1-1.968.713Z" transform="translate(0.001 3.278)" fill="#ea4418"/>
  <path id="Path_30081" data-name="Path 30081" d="M47.36,87.194a4.51,4.51,0,0,1-3.191-1.319L37.34,79.142h-.16a12.679,12.679,0,0,1-3.191.436,8.51,8.51,0,0,1-2.34-.308,18.5,18.5,0,0,1-6.084-3.446L14.789,65.112l1.542-1.34,10.7,10.69a16.37,16.37,0,0,0,5.138,2.883,6.585,6.585,0,0,0,1.776.234,11.413,11.413,0,0,0,3.329-.553l.6-.213,7.712,7.616a2.51,2.51,0,0,0,1.755.713H73.931a2.489,2.489,0,0,0,1.723-4.255l-20.912-20.1.808-14.637a3.191,3.191,0,0,0-.266-1.51c-5.659-12.924-5.733-12.935-7.3-13.264L30.968,27.3a3.34,3.34,0,0,0-.723-.074,3.266,3.266,0,0,0-.713,6.467L42.839,37.04l-.83,1.213c-3.5,5.148-9.063,14.892-6.893,22C37.722,68.824,42.562,71,42.647,71.026a1.064,1.064,0,0,1-.4,1.957.979.979,0,0,1-.383-.074c-.234-.1-5.776-2.478-8.7-12.062-1-3.276-.7-7.233.872-11.7l.245-.7-.659.34a5.457,5.457,0,0,1-2.468.638H30.8v.34a5.4,5.4,0,0,1-1.468,4.755,5.318,5.318,0,0,1-3.808,1.6,5.425,5.425,0,0,1-1.861-.34l-.351-.128v.383a5.319,5.319,0,0,1-1.51,3.287,5.2,5.2,0,0,1-.872.713,5.414,5.414,0,0,1-2.957.883,5.744,5.744,0,0,1-1.6-.266,5.542,5.542,0,0,1-2.212-1.3L7.4,52.645a5.319,5.319,0,0,1,0-7.627,5.223,5.223,0,0,1,2.7-1.479l.468-.1-.3-.372a5.381,5.381,0,0,1,4.2-8.722,5.191,5.191,0,0,1,1.393.2l.351.085v-.362a5.382,5.382,0,0,1,1.5-3.553,5.318,5.318,0,0,1,3.808-1.585,5.872,5.872,0,0,1,2.957.872l.383.245.064-.447a5.223,5.223,0,0,1,.383-1.436,5.318,5.318,0,0,1,4.925-3.191,6.127,6.127,0,0,1,1.159.117l17.019,4.074c2.606.479,2.606.479,8.754,14.4a5.191,5.191,0,0,1,.425,2.489l-.766,13.7,20.306,19.4a4.553,4.553,0,0,1-3.191,7.829ZM11.194,45.508A3.351,3.351,0,0,0,8.843,51.23l6.691,6.638a3.351,3.351,0,0,0,5.712-2.393,3.4,3.4,0,0,0-.9-2.255L13.46,46.4a3.574,3.574,0,0,0-2.266-.894Zm3.266-9.073a3.383,3.383,0,0,0-2.372,1,3.34,3.34,0,0,0-.968,2.372,3.287,3.287,0,0,0,.989,2.361l2.8,2.776.074.064,6.712,6.648a.468.468,0,0,0,.085.106L23.1,53.081a3.4,3.4,0,0,0,2.372.968,3.351,3.351,0,0,0,2.361-5.733l-11.009-10.9a3.5,3.5,0,0,0-2.361-.979Zm7.116-5.255a3.351,3.351,0,0,0-2.372,5.7l9.573,9.573a3.343,3.343,0,0,0,4.712-4.744l-9.573-9.478a3.308,3.308,0,0,0-2.361-.968Zm13.371,9a5.319,5.319,0,0,1,1.4,2.51l.191.734.351-.659c.723-1.34,1.542-2.7,2.415-4.063l.213-.34-8.595-2.127Z" transform="translate(0.369 1.607)" fill="#fff"/>
</svg>
