<svg xmlns="http://www.w3.org/2000/svg" width="66.662" height="66.661" viewBox="0 0 66.662 66.661">
  <g id="noun_online_community_2884922" data-name="noun_online community_2884922" transform="translate(0.35 0.35)">
    <path id="Path_30100" data-name="Path 30100" d="M51.767,64.533A12.767,12.767,0,1,1,64.534,51.767,12.781,12.781,0,0,1,51.767,64.533Zm0-24.47a11.7,11.7,0,1,0,11.7,11.7A11.717,11.717,0,0,0,51.767,40.064Z" transform="translate(1.428 1.428)" fill="#fff" stroke="#fff" stroke-width="0.7"/>
    <path id="Path_30101" data-name="Path 30101" d="M51.256,52.511a4.256,4.256,0,1,1,4.256-4.256A4.26,4.26,0,0,1,51.256,52.511Zm0-7.447a3.192,3.192,0,1,0,3.192,3.192A3.2,3.2,0,0,0,51.256,45.064Z" transform="translate(1.939 1.747)" fill="#fff" stroke="#fff" stroke-width="0.7"/>
    <path id="Path_30102" data-name="Path 30102" d="M58.118,61.653a.53.53,0,0,1-.516-.4l-1.8-7.186H47.061l-1.8,7.186a.532.532,0,1,1-1.032-.257l1.9-7.589a.531.531,0,0,1,.516-.4h9.575a.531.531,0,0,1,.516.4l1.9,7.589a.532.532,0,0,1-.516.661Z" transform="translate(1.762 2.322)" fill="#fff" stroke="#fff" stroke-width="0.7"/>
    <path id="Path_30103" data-name="Path 30103" d="M13.767,64.533a12.67,12.67,0,0,1-5.094-1.058A.532.532,0,0,1,9.1,62.5a11.686,11.686,0,1,0-6.334-6.737.532.532,0,1,1-1,.364,12.769,12.769,0,1,1,12,8.4Z" transform="translate(-1 1.428)" fill="#fff" stroke="#fff" stroke-width="0.7"/>
    <path id="Path_30104" data-name="Path 30104" d="M5.058,59.869a.531.531,0,0,1-.373-.153,12.785,12.785,0,0,1-1.552-1.845.531.531,0,0,1,.875-.6,11.81,11.81,0,0,0,1.423,1.692.531.531,0,0,1-.372.911Z" transform="translate(-0.87 2.58)" fill="#fff" stroke="#fff" stroke-width="0.7"/>
    <path id="Path_30105" data-name="Path 30105" d="M51.767,26.533A12.767,12.767,0,1,1,56.861,2.058a.532.532,0,1,1-.426.975A11.686,11.686,0,1,0,62.77,9.769a.532.532,0,0,1,1-.364,12.777,12.777,0,0,1-12,17.129Z" transform="translate(1.428 -1)" fill="#fff" stroke="#fff" stroke-width="0.7"/>
    <path id="Path_30106" data-name="Path 30106" d="M60.583,7.133a.529.529,0,0,1-.437-.23,11.81,11.81,0,0,0-1.423-1.692.532.532,0,0,1,.746-.759A12.786,12.786,0,0,1,61.021,6.3a.53.53,0,0,1-.135.739A.514.514,0,0,1,60.583,7.133Z" transform="translate(2.678 -0.789)" fill="#fff" stroke="#fff" stroke-width="0.7"/>
    <path id="Path_30107" data-name="Path 30107" d="M13.256,52.511a4.256,4.256,0,1,1,4.256-4.256A4.26,4.26,0,0,1,13.256,52.511Zm0-7.447a3.192,3.192,0,1,0,3.192,3.192A3.2,3.2,0,0,0,13.256,45.064Z" transform="translate(-0.489 1.747)" fill="#fff" stroke="#fff" stroke-width="0.7"/>
    <path id="Path_30108" data-name="Path 30108" d="M20.118,61.653a.53.53,0,0,1-.516-.4l-1.8-7.186H9.062l-1.8,7.186a.532.532,0,1,1-1.032-.257l1.9-7.589a.529.529,0,0,1,.515-.4h9.575a.531.531,0,0,1,.516.4l1.9,7.589a.532.532,0,0,1-.516.661Z" transform="translate(-0.666 2.322)" fill="#fff" stroke="#fff" stroke-width="0.7"/>
    <path id="Path_30109" data-name="Path 30109" d="M13.767,26.533A12.767,12.767,0,1,1,26.534,13.767,12.781,12.781,0,0,1,13.767,26.533Zm0-24.47a11.7,11.7,0,1,0,11.7,11.7A11.717,11.717,0,0,0,13.767,2.064Z" transform="translate(-1 -1)" fill="#fff" stroke="#fff" stroke-width="0.7"/>
    <path id="Path_30110" data-name="Path 30110" d="M13.256,14.511a4.256,4.256,0,1,1,4.256-4.256A4.26,4.26,0,0,1,13.256,14.511Zm0-7.447a3.192,3.192,0,1,0,3.192,3.192A3.2,3.2,0,0,0,13.256,7.064Z" transform="translate(-0.489 -0.681)" fill="#fff" stroke="#fff" stroke-width="0.7"/>
    <path id="Path_30111" data-name="Path 30111" d="M20.118,23.653a.53.53,0,0,1-.516-.4l-1.8-7.186H9.062l-1.8,7.186a.532.532,0,0,1-1.032-.257l1.9-7.589a.529.529,0,0,1,.515-.4h9.575a.531.531,0,0,1,.516.4l1.9,7.589a.532.532,0,0,1-.516.661Z" transform="translate(-0.666 -0.106)" fill="#fff" stroke="#fff" stroke-width="0.7"/>
    <path id="Path_30112" data-name="Path 30112" d="M51.256,14.511a4.256,4.256,0,1,1,4.256-4.256A4.26,4.26,0,0,1,51.256,14.511Zm0-7.447a3.192,3.192,0,1,0,3.192,3.192A3.2,3.2,0,0,0,51.256,7.064Z" transform="translate(1.939 -0.681)" fill="#fff" stroke="#fff" stroke-width="0.7"/>
    <path id="Path_30113" data-name="Path 30113" d="M58.118,23.653a.53.53,0,0,1-.516-.4l-1.8-7.186H47.061l-1.8,7.186a.532.532,0,1,1-1.032-.257l1.9-7.589a.531.531,0,0,1,.516-.4h9.575a.531.531,0,0,1,.516.4l1.9,7.589a.532.532,0,0,1-.516.661Z" transform="translate(1.762 -0.106)" fill="#fff" stroke="#fff" stroke-width="0.7"/>
    <path id="Path_30114" data-name="Path 30114" d="M32.831,46.661A13.831,13.831,0,1,1,46.661,32.831,13.847,13.847,0,0,1,32.831,46.661Zm0-26.6A12.767,12.767,0,1,0,45.6,32.831,12.781,12.781,0,0,0,32.831,20.064Z" transform="translate(0.15 0.15)" fill="#ea4418" stroke="#ea4418" stroke-width="0.7"/>
    <path id="Path_30115" data-name="Path 30115" d="M32.319,46.661C29.286,46.661,27,40.715,27,32.831S29.286,19,32.319,19s5.319,5.946,5.319,13.831S35.353,46.661,32.319,46.661Zm0-26.6c-2.013,0-4.256,5.243-4.256,12.767S30.307,45.6,32.319,45.6s4.256-5.243,4.256-12.767S34.332,20.064,32.319,20.064Z" transform="translate(0.661 0.15)" fill="#ea4418" stroke="#ea4418" stroke-width="0.7"/>
    <path id="Path_30116" data-name="Path 30116" d="M32.831,37.639C24.946,37.639,19,35.353,19,32.319S24.946,27,32.831,27s13.831,2.286,13.831,5.319S40.715,37.639,32.831,37.639Zm0-9.575c-7.524,0-12.767,2.243-12.767,4.256s5.243,4.256,12.767,4.256S45.6,34.332,45.6,32.319,40.355,28.064,32.831,28.064Z" transform="translate(0.15 0.661)" fill="#ea4418" stroke="#ea4418" stroke-width="0.7"/>
  </g>
</svg>
