<svg xmlns="http://www.w3.org/2000/svg" width="91.105" height="77.659" viewBox="0 0 91.105 77.659">
  <g id="join-274c387c5fd4085f8231eef2ea91adb10b1c0ecf585f8c126d46399036d342eb" transform="translate(0)">
    <g id="Group_9955" data-name="Group 9955" transform="translate(0)">
      <path id="Path_30118" data-name="Path 30118" d="M91.858,60.113v-.227c0-1.885-.178-5.812-4.1-7.144A25.4,25.4,0,0,1,80.856,49.7c2.516-3.848,2.062-9.355,1.974-9.956-.217-4.717-2.447-6.907-4.273-7.993A9.749,9.749,0,0,0,73.81,30.5h-.148a9.808,9.808,0,0,0-4.736,1.214c-1.806,1.046-4.115,3.3-4.332,8.032-.059.622-.523,6.128,1.974,9.956a25.015,25.015,0,0,1-6.907,3.059,5.427,5.427,0,0,0-1.5.78l3.128,1.273A28.528,28.528,0,0,0,68.2,51.548a8.279,8.279,0,0,0,5.358,1.875h.3a8.378,8.378,0,0,0,5.368-1.875,27.571,27.571,0,0,0,7.825,3.533c1.974.72,2.26,2.96,2.319,4.934v.207a15.659,15.659,0,0,1-.178,2.723A32.119,32.119,0,0,1,73.79,66.517c-1.293,0-2.575-.069-3.858-.2l-.089,1.115s-.365,1.283-.059,1.312a38.387,38.387,0,0,0,3.947.207c10.253,0,16.489-3.779,17.209-4.213a1.135,1.135,0,0,0,.464-.562,14.446,14.446,0,0,0,.454-4.065ZM78.27,49.12A5.7,5.7,0,0,1,73.79,51H73.7a5.733,5.733,0,0,1-4.529-1.865c-2.714-3.069-2.191-8.881-2.161-9.157v-.1c.286-6.276,4.746-6.907,6.641-6.907h.109c2.358.059,6.335.987,6.651,6.907v.069c.128.059.76,6.009-2.043,9.167Z" transform="translate(-0.76 -0.404)" fill="#fff"/>
      <path id="Path_30119" data-name="Path 30119" d="M25.212,49.742c2.516-3.858,2.052-9.364,1.974-9.966-.227-4.717-2.447-6.907-4.273-7.993a9.759,9.759,0,0,0-4.746-1.243h-.148a9.739,9.739,0,0,0-4.746,1.214c-1.816,1.036-4.1,3.286-4.332,8.022-.059.622-.513,6.128,1.974,9.966a25.774,25.774,0,0,1-6.907,3.069C.2,54.074.079,58,0,59.9a1.381,1.381,0,0,1,0,.286,12.966,12.966,0,0,0,.454,3.947,1.046,1.046,0,0,0,.454.533c.059,0,6.394,4.213,17.209,4.213H19.41l-.217-2.358H18.127A32.475,32.475,0,0,1,2.615,62.906a14.8,14.8,0,0,1-.187-2.723v-.217c.069-1.974.306-4.174,2.319-4.934a28.044,28.044,0,0,0,7.815-3.523,8.3,8.3,0,0,0,5.368,1.875h.276a8.328,8.328,0,0,0,5.358-1.875A27.629,27.629,0,0,0,29.9,54.578L32.622,52.9l-.553-.2a25.241,25.241,0,0,1-6.858-2.96Zm-2.6-.572a5.7,5.7,0,0,1-4.529,1.875H18a5.753,5.753,0,0,1-4.529-1.865c-2.654-3.069-2.122-8.881-2.112-9.157v-.148c.3-6.276,4.756-6.907,6.661-6.907h.109c2.368.059,6.345.987,6.661,6.907v.069c0,.069.632,6.019-2.171,9.177Z" transform="translate(0.01 -0.404)" fill="#fff"/>
      <path id="Path_30120" data-name="Path 30120" d="M37.852,0H3.5A2.8,2.8,0,0,0,.7,2.8V22.587A2.8,2.8,0,0,0,3.5,25.36h.74v4.934a1.194,1.194,0,0,0,1.194,1.224,1.135,1.135,0,0,0,.849-.345L12.1,25.36H35.533l2.27-2.4H11.594a1.253,1.253,0,0,0-.849.365l-4.1,4.125V24.087a1.184,1.184,0,0,0-1.184-1.1H3.483a.4.4,0,0,1-.414-.395V2.862a.4.4,0,0,1,.4-.4H37.852a.395.395,0,0,1,.395.4v20.16l2.4-1.046V2.8A2.8,2.8,0,0,0,37.852,0Z" transform="translate(0.001)" fill="#fff"/>
      <path id="Path_30121" data-name="Path 30121" d="M33.906,10.377A1.224,1.224,0,0,0,33.7,7.94H7.342a.8.8,0,0,0-.217,0,1.224,1.224,0,1,0,.217,2.437Z" transform="translate(-0.07 -0.105)" fill="#fff"/>
      <path id="Path_30122" data-name="Path 30122" d="M7.572,15.28H7.364a1.224,1.224,0,1,0,.207,2.437H24.485a.73.73,0,0,0,.207,0,1.214,1.214,0,0,0,1.115-1.322,1.233,1.233,0,0,0-1.322-1.115Z" transform="translate(-0.072 -0.202)" fill="#fff"/>
    </g>
    <path id="Path_30123" data-name="Path 30123" d="M78.865,11.87H59.84a2.23,2.23,0,0,0-2.22,2.23V25.211a2.24,2.24,0,0,0,2.22,2.23h.72v4.194a.888.888,0,0,0,.553.829.839.839,0,0,0,.345.079.987.987,0,0,0,.641-.266l4.835-4.835h11.93a2.25,2.25,0,0,0,2.23-2.23V14.1a2.23,2.23,0,0,0-2.23-2.23ZM79.3,25.211a.424.424,0,0,1-.424.424H66.56a.868.868,0,0,0-.592.227l-3.631,3.621V26.4a.908.908,0,0,0-.908-.819H59.85a.424.424,0,0,1-.424-.424V14.1a.424.424,0,0,1,.424-.424H78.875a.424.424,0,0,1,.424.424Z" transform="translate(-0.753 -0.157)" fill="#ea4418"/>
    <path id="Path_30124" data-name="Path 30124" d="M69.506,19.07a1.046,1.046,0,0,0-1.046,1.036A.987.987,0,0,0,69.5,21.142a1.046,1.046,0,0,0,0-2.082Z" transform="translate(-0.896 -0.252)" fill="#ea4418"/>
    <path id="Path_30125" data-name="Path 30125" d="M74.916,19.07a.987.987,0,0,0-1.046.987,1.046,1.046,0,0,0,2.082,0,.987.987,0,0,0-1.036-.987Z" transform="translate(-0.968 -0.252)" fill="#ea4418"/>
    <path id="Path_30126" data-name="Path 30126" d="M64.1,19.069a.987.987,0,0,0-1.046.987,1.074,1.074,0,1,0,.987-1.046Z" transform="translate(-0.825 -0.252)" fill="#ea4418"/>
    <path id="Path_30127" data-name="Path 30127" d="M33.538,34.819a.2.2,0,0,1,0-.109C34,24.645,41.2,23.56,44.255,23.56h.187c3.8.089,10.233,1.638,10.716,11.1v.158c0,.089.987,9.374-3.434,14.377a9.315,9.315,0,0,1-7.361,3.029h-.138a9.276,9.276,0,0,1-7.253-3.049c-4.174-4.7-3.523-13.371-3.434-14.357Zm35.168,30.59a24.412,24.412,0,0,1-.286,4.243l-.059.276-.257.148C65.816,71.368,57.25,75.6,44.422,75.6S23.01,71.359,20.74,70.066l-.257-.148-.059-.286a22.459,22.459,0,0,1-.345-4.223v-.355c.1-3.187.484-6.809,3.947-8.032a40.458,40.458,0,0,0,11.94-5.427l.109-.109a11.565,11.565,0,0,0,8.072,3.069h.414a11.614,11.614,0,0,0,8.1-3.059.849.849,0,0,0,.128.138A40.734,40.734,0,0,0,64.75,57.07C68.213,58.294,68.6,61.846,68.7,65.1a1.686,1.686,0,0,0,.01.306Zm2.279-.187v-.207c-.079-2.7-.227-8.348-5.654-10.154A39.066,39.066,0,0,1,54.172,49.8c4.085-5.585,3.375-14.14,3.3-15.176-.316-6.8-3.493-10.016-6.108-11.516A14.219,14.219,0,0,0,44.541,21.3h-.227A13.992,13.992,0,0,0,37.5,23.037a11.417,11.417,0,0,0-5.171,6.226,17.367,17.367,0,0,0-.987,5.348c-.089.987-.789,9.572,3.286,15.167A38.78,38.78,0,0,1,23.355,54.85c-5.329,1.826-5.5,7.411-5.585,10.124v.434a19.222,19.222,0,0,0,.641,5.763.987.987,0,0,0,.444.533c.089.069,9.532,6.236,25.538,6.236,15.285,0,24.541-5.595,25.567-6.217a1.184,1.184,0,0,0,.434-.523,19.883,19.883,0,0,0,.592-5.812Z" transform="translate(-0.225 -0.282)" fill="#ea4418"/>
  </g>
</svg>
