<svg xmlns="http://www.w3.org/2000/svg" width="77.111" height="73.097" viewBox="0 0 77.111 73.097">
  <g id="discover-eba3d29a9e79b1da4cdc2c0808e5e16cffa084f4e932dafebbb55cf091b2b1cc" transform="translate(-0.001)">
    <g id="Group_9953" data-name="Group 9953" transform="translate(0.001 21.553)">
      <path id="Path_30082" data-name="Path 30082" d="M9.41,76.86H1.382a.462.462,0,0,0-.462.469V89.372a.462.462,0,0,0,.477.454H9.41a.454.454,0,0,0,.462-.454V77.329a.469.469,0,0,0-.462-.469ZM8.236,87.705a.454.454,0,0,1-.462.454H3.08a.462.462,0,0,1-.462-.423V79a.469.469,0,0,1,.462-.469H7.774A.469.469,0,0,1,8.228,79Z" transform="translate(-0.381 -38.282)" fill="#ea4418"/>
      <path id="Path_30083" data-name="Path 30083" d="M46.642,60.69h-8.02a.462.462,0,0,0-.462.469V85.854a.462.462,0,0,0,.462.454h8.02a.462.462,0,0,0,.462-.454V61.159a.469.469,0,0,0-.462-.469ZM45.46,84.164a.454.454,0,0,1-.462.462H40.3a.469.469,0,0,1-.462-.462V62.826a.47.47,0,0,1,.462-.469H45a.462.462,0,0,1,.462.469Z" transform="translate(-8.482 -34.764)" fill="#ea4418"/>
      <path id="Path_30084" data-name="Path 30084" d="M65.57,47.55h-8.02a.477.477,0,0,0-.469.462V83a.469.469,0,0,0,.469.454h8.02A.454.454,0,0,0,66.024,83V48.012a.462.462,0,0,0-.454-.462ZM64.357,81.329a.454.454,0,0,1-.454.454H59.208a.462.462,0,0,1-.462-.423V49.678a.462.462,0,0,1,.462-.462H63.9a.462.462,0,0,1,.454.462Z" transform="translate(-12.597 -31.906)" fill="#ea4418"/>
      <path id="Path_30085" data-name="Path 30085" d="M28.168,60.79H19.874a.469.469,0,0,0-.454.469V85.876a.454.454,0,0,0,.454.454h8.3a.469.469,0,0,0,.469-.454V61.259a.477.477,0,0,0-.477-.469ZM26.916,84.217a.462.462,0,0,1-.462.469H21.533a.469.469,0,0,1-.469-.446V62.926a.469.469,0,0,1,.469-.469h4.953a.469.469,0,0,1,.462.469Z" transform="translate(-4.405 -34.786)" fill="#ea4418"/>
      <path id="Path_30086" data-name="Path 30086" d="M39.408,42.317l6.26-5.383.266.2a5.305,5.305,0,1,0-2.152-4.264,5.6,5.6,0,0,0,.634,2.527l.149.282-5.908,5.094-.266-.305a5.368,5.368,0,0,0-4.03-1.862A5.25,5.25,0,0,0,29.2,42.771l-.07.329H24.917l-.086-.329a5.477,5.477,0,0,0-.469-1.127,5.315,5.315,0,1,0-9.3,5.156l.149.266L8.743,53.53l-.274-.2a5.415,5.415,0,0,0-3.13-1.009,5.313,5.313,0,0,0,0,10.618,5.313,5.313,0,0,0,5.321-5.305,5.649,5.649,0,0,0-.7-2.566l-.141-.266,6.463-6.463.282.2a5.3,5.3,0,0,0,8.365-3.427l.047-.352H29.1l.063.321a5.3,5.3,0,0,0,10.477-1.142,5.7,5.7,0,0,0-.172-1.362Zm9.663-13.122a3.646,3.646,0,1,1-3.638,3.646,3.646,3.646,0,0,1,3.638-3.646ZM7.945,60.157a3.545,3.545,0,0,1-2.59,1.1,3.646,3.646,0,1,1,0-7.285,3.646,3.646,0,0,1,3.654,3.67A3.482,3.482,0,0,1,7.945,60.157ZM19.721,47.911a3.646,3.646,0,1,1,3.638-3.646,3.646,3.646,0,0,1-3.638,3.646Zm14.624-.344a3.646,3.646,0,1,1,3.638-3.646,3.646,3.646,0,0,1-3.638,3.646Z" transform="translate(-0.231 -27.557)" fill="#ea4418"/>
    </g>
    <path id="Path_30087" data-name="Path 30087" d="M78.975,67.882a.861.861,0,0,1-.626-.266l-17.9-17.9-.845.712a28.725,28.725,0,1,1,2.872-2.872l-.72.845,17.9,17.9a.908.908,0,0,1,0,1.268.892.892,0,0,1-.681.313ZM40.689,1.724a27.011,27.011,0,1,0,27,27.006A27.011,27.011,0,0,0,40.689,1.724Z" transform="translate(-2.801 -0.012)" fill="#fff"/>
  </g>
</svg>
