<svg xmlns="http://www.w3.org/2000/svg" width="60.943" height="60.942" viewBox="0 0 60.943 60.942">
  <g id="Group_9913" data-name="Group 9913" transform="translate(-1718.524 -9571.648)">
    <ellipse id="Ellipse_1807" data-name="Ellipse 1807" cx="30.471" cy="30.471" rx="30.471" ry="30.471" transform="translate(1718.524 9571.648)" fill="#fff"/>
    <path id="Path_19613" data-name="Path 19613" d="M47,21.732V38.954a4.712,4.712,0,0,1-.073.77h0a3.432,3.432,0,0,1-3.536,3c-4.909-.073-9.817,0-14.726,0h-11a2.964,2.964,0,0,1-1.591-.416A3.671,3.671,0,0,1,14.3,38.975V21.6a4.659,4.659,0,0,1,.135-1.144A3.328,3.328,0,0,1,17.8,17.78c2.246.073,4.493,0,6.729,0H43.6a3.234,3.234,0,0,1,3.12,2.08.3.3,0,0,0,.073.229A5.106,5.106,0,0,1,47,21.732Zm-2.558.676h-.052l-.114.083L32.645,33.14a3.12,3.12,0,0,1-4.264,0L17.108,22.169l-.2-.177h0V38.746a3.234,3.234,0,0,0,.177.936.593.593,0,0,0,.624.4h26a.572.572,0,0,0,.614-.364,3.962,3.962,0,0,0,.2-1.092q0-6.9,0-13.79ZM42.785,20.39H18.866v.052a3.12,3.12,0,0,1,.312.26L30.014,31.1c.374.364.572.374.957,0l10.057-9.141Z" transform="translate(1718.368 9571.88)" fill="#2a007a"/>
  </g>
</svg>
