<svg xmlns="http://www.w3.org/2000/svg" width="60.943" height="60.942" viewBox="0 0 60.943 60.942">
  <g id="Group_9912" data-name="Group 9912" transform="translate(-1644.686 -9571.648)">
    <ellipse id="Ellipse_1806" data-name="Ellipse 1806" cx="30.471" cy="30.471" rx="30.471" ry="30.471" transform="translate(1644.686 9571.648)" fill="#fff"/>
    <path id="Path_19610" data-name="Path 19610" d="M32.277,47.194H25.694c-.634,0-.634,0-.634-.655v-21.6c0-.738,0-.738.749-.738h5.616c.416,0,.582.094.562.541v2.6c.239-.333.4-.562.562-.78A7.415,7.415,0,0,1,38.34,23.68a12.927,12.927,0,0,1,3.4.322,6.6,6.6,0,0,1,5.1,5.293,21.839,21.839,0,0,1,.562,5.512c0,3.931,0,7.852,0,11.783,0,.468-.1.624-.593.614H40.67c-.468,0-.572-.166-.572-.593V35.484a13.415,13.415,0,0,0-.312-3.026A2.985,2.985,0,0,0,36.6,30.014c-1.654,0-3.037.447-3.723,2.08a6.3,6.3,0,0,0-.541,2.215c-.062,4.056-.062,8.122-.062,12.2Z" transform="translate(1644.959 9572.115)" fill="#2a007a"/>
    <path id="Path_19611" data-name="Path 19611" d="M14,47.174V24.8c0-.614,0-.624.6-.624h5.845c.749,0,.759,0,.759.738v21.5c0,.759,0,.759-.728.759Z" transform="translate(1644.518 9572.137)" fill="#2a007a"/>
    <path id="Path_19612" data-name="Path 19612" d="M13.42,17.41A4.16,4.16,0,1,1,14.608,20.4,4.16,4.16,0,0,1,13.42,17.41Z" transform="translate(1644.494 9571.699)" fill="#2a007a"/>
  </g>
</svg>
