<svg xmlns="http://www.w3.org/2000/svg" width="60.943" height="60.942" viewBox="0 0 60.943 60.942">
  <g id="Group_9911" data-name="Group 9911" transform="translate(-1570.847 -9571.65)">
    <ellipse id="Ellipse_1805" data-name="Ellipse 1805" cx="30.471" cy="30.471" rx="30.471" ry="30.471" transform="translate(1570.847 9571.65)" fill="#fff"/>
    <path id="Path_19609" data-name="Path 19609" d="M23.287,41.149A7.893,7.893,0,0,1,16.1,35.731c.562,0,1.113.083,1.664.062a13.383,13.383,0,0,0,1.674-.208A7.987,7.987,0,0,1,13.3,27.806a8.767,8.767,0,0,0,3.515.874,7.883,7.883,0,0,1-2.4-10.4,22.464,22.464,0,0,0,16.192,8.091c0-.5-.114-.957-.135-1.4a7.862,7.862,0,0,1,9.433-8.091,7.28,7.28,0,0,1,3.91,2.08.5.5,0,0,0,.541.156,16.088,16.088,0,0,0,4.378-1.674l.166-.083h.1a8.06,8.06,0,0,1-3.224,4.16,13.832,13.832,0,0,0,4.3-1.134,15.693,15.693,0,0,1-3.2,3.5l-.1.073a1.217,1.217,0,0,0-.593,1.373,21.631,21.631,0,0,1-1.664,8.684,22.879,22.879,0,0,1-3.526,5.99,21.528,21.528,0,0,1-4.16,3.889,21.111,21.111,0,0,1-5.6,2.87,21.652,21.652,0,0,1-5.387,1.092,23.15,23.15,0,0,1-6.562-.406,21.174,21.174,0,0,1-5.293-1.841c-.707-.364-1.4-.749-2.08-1.165a17.087,17.087,0,0,0,6.032-.551,14.872,14.872,0,0,0,5.345-2.746Z" transform="translate(1570.595 9571.59)" fill="#2a007a"/>
  </g>
</svg>
