<svg xmlns="http://www.w3.org/2000/svg" width="62.793" height="87.031" viewBox="0 0 62.793 87.031">
  <g id="noun_Protest_47363" transform="translate(-18.136 -7.319)">
    <g id="Group_9909" data-name="Group 9909">
      <path id="Path_29774" data-name="Path 29774" d="M36.7,18.9a.367.367,0,0,1-.3-.1,1.04,1.04,0,0,1-.6-1.3c.1-.3,2.4-6.6,7.2-7.4,2.7-.4,8.6.5,10,3.1a1.03,1.03,0,0,1-1.8,1c-.7-1.4-5.5-2.5-7.9-2.1-3.7.6-5.7,6-5.7,6.1A.961.961,0,0,1,36.7,18.9Z" fill="#fff" stroke="#fff" stroke-width="1.5"/>
      <g id="Group_9908" data-name="Group 9908">
        <path id="Path_29775" data-name="Path 29775" d="M74.6,90.3a1.053,1.053,0,0,1-1-.8L68.1,67.8a.878.878,0,0,1,.1-.7c3.3-6.6,8.4-17.2,8.7-19.1q.15-.6.3-1.5c.7-3.3,2.1-9.3-1.5-11.8a98.569,98.569,0,0,1-10-8A40.457,40.457,0,0,0,62.4,24c-.7-.2-4.4.9-6.3,1.5a19.546,19.546,0,0,1-4.2,1c-1.4,0-5.2.5-6.2,1.7a.646.646,0,0,0-.2.5c.4,3.1,1.7,6.4,7.4,7.4,5.5,1,5.9.4,7.7-2.7l.5-.8a1.03,1.03,0,1,1,1.8,1l-.5.8c-2.1,3.7-3.2,4.9-9.8,3.7-7.1-1.3-8.5-5.8-9-9.1a2.635,2.635,0,0,1,.6-2.1c1.9-2.2,7.7-2.4,7.8-2.4a35.615,35.615,0,0,0,3.7-.9c3.9-1.1,6.3-1.8,7.4-1.4.8.3,1.9,1.1,4.1,3.1A105.907,105.907,0,0,0,77,33.2c4.7,3.3,3.2,10.2,2.3,13.9a10.625,10.625,0,0,1-.3,1.4c-.4,2.7-7.3,16.5-8.7,19.3l5.4,21.4a1.028,1.028,0,0,1-.7,1.2A.756.756,0,0,0,74.6,90.3Z" fill="#fff" stroke="#fff" stroke-width="1.5"/>
        <path id="Path_29776" data-name="Path 29776" d="M68.4,43.6c-6.3,0-11.2-4.3-11.6-6.1a1.02,1.02,0,1,1,2-.4c.2.8,4.2,4.7,10,4.6h0a1,1,0,0,1,1,1,.945.945,0,0,1-1,1A.756.756,0,0,0,68.4,43.6Z" fill="#fff" stroke="#fff" stroke-width="1.5"/>
        <path id="Path_29777" data-name="Path 29777" d="M50.3,54.8h0a.945.945,0,0,1-1-1c0-.3.1-8.2,8.4-16.5a.99.99,0,1,1,1.4,1.4c-7.7,7.6-7.8,15-7.8,15.1A1.075,1.075,0,0,1,50.3,54.8Z" fill="#fff" stroke="#fff" stroke-width="1.5"/>
        <path id="Path_29778" data-name="Path 29778" d="M41.4,93.6a1,1,0,0,1-1-1c0-4.5-1.2-16.9-5.7-20.1C23.3,64.5,18.1,50.3,19,41.1c1.1-11.2,6.9-11.7,8-11.7h.3c2,0,5.6-.1,8.3,6.9,1,2.5,1.8,4.4,2.3,5.8,1.1,2.5,1.5,3.7,1.5,4.8,0,1.7-1.1,4.8-5.4,5.8-4.4,1-8.8-5.4-9.7-8.1-.9-2.6-1.4-4.3-1.4-4.4a.982.982,0,0,1,1.9-.5s.5,1.8,1.4,4.3c.9,2.6,4.8,7.4,7.4,6.8,3.1-.7,3.9-2.7,3.9-3.8,0-.8-.5-1.9-1.4-4-.6-1.4-1.4-3.3-2.4-5.8-2.2-5.7-4.6-5.7-6.5-5.7h-.3c-.5,0-5.1.3-6,9.9-.9,8.7,4,22,14.8,29.6,6.3,4.4,6.5,21,6.5,21.7.2.5-.2.9-.8.9Z" fill="#fff" stroke="#fff" stroke-width="1.5"/>
        <path id="Path_29779" data-name="Path 29779" d="M27,30.9h-.1a1.172,1.172,0,0,1-.9-1.1c0-.4,1.2-8.6,6.2-11.5,2.1-1.2,7.5-.6,9.5,1.6,1.8,1.9,3.6,7.2,3.8,7.8a1.012,1.012,0,1,1-1.9.7c-.5-1.5-2.1-5.7-3.3-7.1-1.4-1.5-5.8-1.9-7-1.2-4.1,2.4-5.2,10-5.2,10A1.206,1.206,0,0,1,27,30.9Z" fill="#fff" stroke="#fff" stroke-width="1.5"/>
        <path id="Path_29780" data-name="Path 29780" d="M41.9,47.3a4.1,4.1,0,0,1-1.1-.1c-2.5-.7-5.5-6.8-6.4-8.7a.985.985,0,0,1,1.8-.8c1.6,3.4,4,7.3,5.1,7.6a4.673,4.673,0,0,0,3.5-1.1,3.406,3.406,0,0,0,1.6-2.5,51.76,51.76,0,0,0-1.1-7.6,1.02,1.02,0,1,1,2-.4c0,.2,1.2,5.2,1.1,8A5.611,5.611,0,0,1,46,45.8,7.379,7.379,0,0,1,41.9,47.3Z" fill="#fff" stroke="#fff" stroke-width="1.5"/>
        <path id="Path_29781" data-name="Path 29781" d="M74.3,33.5a.961.961,0,0,1-.9-.7c-.5-1.5-5.3-14.9-5.6-17.1-.2-1.6-2-3.9-6.3-5.4-2.1-.7-5,.2-7.1,2.1-1.7,1.6-2.4,3.5-2,5.2a31.5,31.5,0,0,0,2.3,6.9,1.03,1.03,0,0,1-1.8,1A37.781,37.781,0,0,1,50.4,18,7.017,7.017,0,0,1,53,11c2.6-2.4,6.3-3.4,9-2.5,4.4,1.5,7.3,4.1,7.7,7,.2,1.5,3.4,10.8,5.5,16.7a1.04,1.04,0,0,1-.6,1.3C74.5,33.4,74.4,33.5,74.3,33.5Z" fill="#fff" stroke="#fff" stroke-width="1.5"/>
        <path id="Path_29782" data-name="Path 29782" d="M65.8,26.5a.9.9,0,0,1-.5-.1,1.107,1.107,0,0,1-.4-1.4c1.4-2.3,0-7.1-.7-8.7a1.012,1.012,0,1,1,1.9-.7c.1.3,2.7,6.8.6,10.5A1.489,1.489,0,0,1,65.8,26.5Z" fill="#fff" stroke="#fff" stroke-width="1.5"/>
      </g>
    </g>
  </g>
</svg>
