<svg xmlns="http://www.w3.org/2000/svg" width="72.396" height="72.378" viewBox="0 0 72.396 72.378">
  <g id="noun_chat_4254186" transform="translate(-1.499 -1.505)">
    <g id="Layer_2" data-name="Layer 2" transform="translate(1.499 1.505)">
      <path id="Path_29770" data-name="Path 29770" d="M73.894,46.374a27.382,27.382,0,0,0-12.9-23.313A30.4,30.4,0,1,0,4.817,45.72L1.537,60.54a1.448,1.448,0,0,0,1.737,1.737l14.82-3.292a30.083,30.083,0,0,0,4.955,1.946A27.509,27.509,0,0,0,58.837,70.9l13.288,2.951a1.449,1.449,0,0,0,1.735-1.726l-2.951-13.3A27.573,27.573,0,0,0,73.894,46.374ZM18.3,56a1.419,1.419,0,0,0-.313.035L4.858,58.944,7.771,45.833a1.448,1.448,0,0,0-.136-1A27.509,27.509,0,1,1,18.969,56.167,1.465,1.465,0,0,0,18.3,56ZM58.97,67.956a1.41,1.41,0,0,0-1,.136A24.614,24.614,0,0,1,27.274,61.9a30.178,30.178,0,0,0,34.65-34.612A24.614,24.614,0,0,1,68.1,57.957a1.448,1.448,0,0,0-.136,1l2.571,11.583Z" transform="translate(-1.499 -1.505)" fill="#fff"/>
      <path id="Path_29771" data-name="Path 29771" d="M19.719,15.054a4.665,4.665,0,1,0-4.665,4.665,4.665,4.665,0,0,0,4.665-4.665Zm-6.434,0a1.769,1.769,0,1,1,1.769,1.769,1.769,1.769,0,0,1-1.769-1.769Z" transform="translate(15.354 15.336)" fill="#fff"/>
      <path id="Path_29772" data-name="Path 29772" d="M19.5,19.719a4.665,4.665,0,1,0-4.665-4.665A4.665,4.665,0,0,0,19.5,19.719Zm0-6.434a1.769,1.769,0,1,1-1.769,1.769A1.769,1.769,0,0,1,19.5,13.285Z" transform="translate(23.778 15.336)" fill="#fff"/>
      <path id="Path_29773" data-name="Path 29773" d="M10.61,10.389a4.665,4.665,0,1,0,4.665,4.665,4.665,4.665,0,0,0-4.665-4.665Zm0,6.434a1.769,1.769,0,1,1,1.769-1.769A1.769,1.769,0,0,1,10.61,16.823Z" transform="translate(6.929 15.336)" fill="#fff"/>
    </g>
  </g>
</svg>
