<svg xmlns="http://www.w3.org/2000/svg" width="77.111" height="77.659" viewBox="0 0 77.111 77.659">
  <g id="network-ddcd9b22dc41164d8e2eeec3c46a4cc818f4dc3e27f351eb1c19a20d152386b8" transform="translate(-0.001)">
    <g id="Group_9954" data-name="Group 9954" transform="translate(0.896 0)">
      <path id="Path_30088" data-name="Path 30088" d="M0,0H19.085V1.691H0Z" transform="matrix(0.238, -0.971, 0.971, 0.238, 49.426, 50.607)" fill="#fff"/>
      <path id="Path_30089" data-name="Path 30089" d="M0,0H18.06V1.691H0Z" transform="translate(25.874 31.303) rotate(-24.21)" fill="#fff"/>
      <path id="Path_30090" data-name="Path 30090" d="M24.03,51.582,40.644,64.6l1.025-1.332L25.064,50.25Z" transform="translate(-3.86 -6.217)" fill="#fff"/>
      <path id="Path_30091" data-name="Path 30091" d="M5.856,16.206A4.451,4.451,0,0,0,6.82,16.1l2.55,6.511L10.938,22l-2.55-6.519a4.828,4.828,0,1,0-2.532.727Zm0-8.009a3.163,3.163,0,1,1-3.163,3.128A3.163,3.163,0,0,1,5.856,8.2Z" transform="translate(-1.011 -0.81)" fill="#fff"/>
      <path id="Path_30092" data-name="Path 30092" d="M41.6.333a4.828,4.828,0,1,0,1.84,7.711l5.687,3.505L50,10.077,44.333,6.589A4.828,4.828,0,0,0,41.6.333ZM39.847,8a3.1,3.1,0,1,0-.018,0Z" transform="translate(-5.218 0.001)" fill="#fff"/>
      <path id="Path_30093" data-name="Path 30093" d="M84.571,55.585A4.925,4.925,0,0,0,75.9,58.713a4.863,4.863,0,0,0,.324,1.8L69.78,64.3l.806,1.455,6.484-3.812a4.915,4.915,0,1,0,7.5-6.354Zm-3.733,6.283a3.093,3.093,0,1,1,2.2-.906A3.1,3.1,0,0,1,80.838,61.868Z" transform="translate(-9.521 -6.663)" fill="#fff"/>
      <path id="Path_30094" data-name="Path 30094" d="M31.172,73.157a4.8,4.8,0,1,0,.193,1.682l7.737-.806L38.91,72.35Zm-4.618,4.486a3.155,3.155,0,1,1,2.234-.927A3.163,3.163,0,0,1,26.554,77.643Z" transform="translate(-3.58 -8.628)" fill="#fff"/>
      <path id="Path_30095" data-name="Path 30095" d="M10.227,53.35,7.6,60.868a3.918,3.918,0,0,0-.719-.07,4.819,4.819,0,1,0,2.322.6L11.83,53.92Zm-.184,12.268a3.206,3.206,0,1,0,0,.035Z" transform="translate(-1.141 -6.6)" fill="#fff"/>
    </g>
    <path id="Path_30096" data-name="Path 30096" d="M23.35,46.723v-.99c0-.946-.088-3.216-2.024-3.9h-.044a11.181,11.181,0,0,1-3.111-1.49c1.437-2.077,1.2-5.258,1.174-5.626a5.111,5.111,0,0,0-2.129-4.381,4.682,4.682,0,0,0-4.784,0,5.12,5.12,0,0,0-2.147,4.381c0,.377-.263,3.566,1.148,5.626A10.865,10.865,0,0,1,8.3,41.851H8.225c-1.919.727-1.989,2.953-2.015,3.917v1.849l1.5,1.621V45.821c0-1.06.131-2.112,1.008-2.419a12.75,12.75,0,0,0,3.838-1.928,3.926,3.926,0,0,0,2.182.666h.14a4,4,0,0,0,2.156-.666,12.4,12.4,0,0,0,3.891,1.849c.876.351.981,1.4,1.008,2.41v3.4Zm-5.468-11.9c0,.307.237,3.225-1.008,4.714a2.524,2.524,0,0,1-2.086.938,2.471,2.471,0,0,1-2.042-.938c-1.288-1.6-1.025-4.662-1.016-4.732v-.053c.14-3.216,2.182-3.505,3.049-3.505v-.158l.053.158c1.087,0,2.927.526,3.041,3.505Z" transform="translate(-0.759 -3.672)" fill="#ea4418"/>
    <path id="Path_30097" data-name="Path 30097" d="M13.958,51.06A13.95,13.95,0,1,1,27.89,37.128,13.95,13.95,0,0,1,13.958,51.06Zm0-26.192A12.268,12.268,0,1,0,26.225,37.137,12.268,12.268,0,0,0,13.958,24.869Z" transform="translate(0.011 -2.865)" fill="#ea4418"/>
    <path id="Path_30098" data-name="Path 30098" d="M75.5,19.891a14.02,14.02,0,1,0-5.4,10.988,14.02,14.02,0,0,0,5.4-10.988Zm-21.03,10V27.47c0-1.052.131-2.1,1.008-2.454a12.688,12.688,0,0,0,3.847-1.928,3.969,3.969,0,0,0,2.182.666h.149a4.013,4.013,0,0,0,2.156-.648,12.5,12.5,0,0,0,3.838,1.91c.876.359.981,1.411,1.008,2.454v2.366a12.18,12.18,0,0,1-14.187.053Zm9.236-8.622a2.532,2.532,0,0,1-2.094.929,2.5,2.5,0,0,1-2.042-.929c-1.279-1.612-1.008-4.688-1.008-4.741v-.035c.131-3.216,2.164-3.505,3.041-3.505v-.166l.053.166c1.078,0,2.918.508,3.049,3.505v.079C64.722,16.841,64.924,19.724,63.706,21.266Zm6.476,7.343V27.444c0-.955-.088-3.225-2.015-3.908h-.079a11.672,11.672,0,0,1-3.111-1.481c1.446-2.077,1.209-5.258,1.174-5.634a5.117,5.117,0,0,0-2.121-4.381,4.609,4.609,0,0,0-2.418-.683h-.044a4.478,4.478,0,0,0-2.357.666A5.128,5.128,0,0,0,57.064,16.4c0,.368-.263,3.566,1.157,5.634a11.163,11.163,0,0,1-3.1,1.463h-.061c-1.928.727-1.98,2.953-2.015,3.917v1.244a12.268,12.268,0,1,1,17.113-.07Z" transform="translate(-5.863 -0.717)" fill="#ea4418"/>
    <path id="Path_30099" data-name="Path 30099" d="M54.653,56.8a13.941,13.941,0,0,0-8.719,24.807l.123.088a13.936,13.936,0,1,0,8.6-24.895ZM47.4,80.582V78.3c0-1.052.131-2.112,1.008-2.454a12.889,12.889,0,0,0,3.847-1.928,3.978,3.978,0,0,0,2.191.666h.14a4.066,4.066,0,0,0,2.156-.648,12.513,12.513,0,0,0,3.812,1.893c.876.359.981,1.411,1.008,2.454v2.629a12.268,12.268,0,0,1-14.169-.289Zm7.1-16.807v-.158l.044.158c1.087,0,2.927.517,3.049,3.505,0,.3.237,3.181-1.008,4.723a2.567,2.567,0,0,1-2.094.938A2.506,2.506,0,0,1,52.445,72c-1.262-1.577-.964-4.635-.964-4.714.1-3.2,2.138-3.514,3.014-3.514Zm8.561,15.887v-1.42c0-.955-.088-3.216-2.007-3.9h-.061a11.637,11.637,0,0,1-3.1-1.49c1.428-2.068,1.2-5.258,1.165-5.634a5.15,5.15,0,0,0-2.112-4.381,4.627,4.627,0,0,0-2.418-.6,4.478,4.478,0,0,0-2.357.666c-.92.57-2.042,1.8-2.147,4.381,0,.368-.272,3.566,1.157,5.634a11.391,11.391,0,0,1-3.2,1.428c-1.928.736-1.989,2.953-2.015,3.926V79.32a12.206,12.206,0,0,1-3.505-8.57c0-6.765,6.134-12.268,12.268-12.268s12.268,5.5,12.268,12.268a12.215,12.215,0,0,1-3.934,8.912Z" transform="translate(-5.03 -7.027)" fill="#ea4418"/>
  </g>
</svg>
