<svg xmlns="http://www.w3.org/2000/svg" width="58.494" height="65.771" viewBox="0 0 58.494 65.771">
  <g id="noun_cost_4091768" transform="translate(-51.649 -26.257)">
    <path id="Path_29819" data-name="Path 29819" d="M110.144,63.518c0-2.719-4.723-4.218-9.257-4.279-4.7-9.558-10.655-12.872-12.881-13.827l5.715-9.326a2.729,2.729,0,0,0-3.076-4.052l-5.9,1.679-2.247-5.152a3.833,3.833,0,0,0-7.029,0l-2.247,5.161-5.9-1.687a2.729,2.729,0,0,0-3.076,4.052l5.776,9.429c-2.618,1.539-11.78,7.806-16.452,22.422-.173.478-4.186,11.763-.063,17.641,1.589,2.264,4.151,3.413,7.6,3.413h17.52c1.218,1.981,5.3,3.037,9.18,3.037a17.916,17.916,0,0,0,6.836-1.237,18.9,18.9,0,0,0,5.958.889c4.58,0,9.446-1.473,9.541-4.2a.705.705,0,0,0,0-.079V64.521a.728.728,0,0,0-.094-.361A2.281,2.281,0,0,0,110.144,63.518Zm-1.466,19.1c0,1.176-3.073,2.818-8.079,2.818a20,20,0,0,1-3.243-.253V81.9a21.422,21.422,0,0,0,3.249.242c3.076,0,6.277-.664,8.079-1.925ZM95.884,78.194c0,1.176-3.073,2.817-8.079,2.817s-8.079-1.64-8.079-2.817,3.074-2.818,8.079-2.818S95.884,77.017,95.884,78.194ZM79.726,80.551c1.8,1.261,5.009,1.925,8.079,1.925s6.277-.664,8.079-1.925v.464h0V82.97c0,1.176-3.073,2.817-8.079,2.817s-8.079-1.64-8.079-2.817Zm28.952-2.705c0,1.176-3.073,2.818-8.079,2.818a20,20,0,0,1-3.249-.26v-2.21a.705.705,0,0,0,0-.079,2.329,2.329,0,0,0-.3-1.059,21.243,21.243,0,0,0,3.551.3c3.076,0,6.277-.664,8.079-1.925Zm0-4.776c0,1.176-3.073,2.818-8.079,2.818S92.52,74.247,92.52,73.07V70.653c1.8,1.261,5.009,1.924,8.079,1.924s6.277-.663,8.079-1.924Zm0-4.776c0,1.176-3.073,2.818-8.079,2.818S92.52,69.471,92.52,68.3V65.877c1.8,1.261,5.009,1.924,8.079,1.924s6.277-.663,8.079-1.924Zm0-4.776c0,1.176-3.073,2.818-8.079,2.818s-8.079-1.642-8.079-2.818c0-1.145,2.9-2.719,7.654-2.812a.73.73,0,0,0,.572,0C105.665,60.736,108.678,62.355,108.678,63.518ZM65.563,33.892a1.227,1.227,0,0,1,1.354-.452L73.433,35.3a.731.731,0,0,0,.873-.412l2.5-5.748a2.369,2.369,0,0,1,4.342,0l2.5,5.748a.734.734,0,0,0,.873.412l6.516-1.861a1.265,1.265,0,0,1,1.431,1.878L86.51,45.05H71.451l-5.962-9.732a1.227,1.227,0,0,1,.074-1.423ZM54.705,84.737c-3.688-5.254.2-16.193.249-16.329,4.858-15.2,14.948-21.162,16.273-21.891H86.8c.833.286,7.359,2.812,12.467,12.759-4,.246-7.837,1.594-8.184,3.9a.779.779,0,0,0-.029.2V74.166a21.228,21.228,0,0,0-3.249-.248c-4.58,0-9.446,1.473-9.541,4.2v9.41H61.106C58.157,87.525,56,86.588,54.705,84.737Zm25.021,3.006V85.33c1.8,1.261,5.009,1.925,8.079,1.925s6.277-.664,8.079-1.925v2.419c0,.5-.55,1.075-1.559,1.574-.033.014-.064.03-.1.047a15.32,15.32,0,0,1-6.425,1.191c-5,0-8.079-1.639-8.079-2.815Zm20.873,2.47a18.861,18.861,0,0,1-4.268-.464,2.671,2.671,0,0,0,1.019-2V86.664a21.254,21.254,0,0,0,3.249.242c3.076,0,6.277-.664,8.079-1.925V87.4c0,1.176-3.073,2.818-8.079,2.818Z" transform="translate(0 0)" fill="#fff"/>
    <path id="Path_29820" data-name="Path 29820" d="M214.71,227.818v2a.733.733,0,1,0,1.464,0v-2a4.646,4.646,0,0,0,3.748-3.524c.212-1.062.226-3.721-4.218-5.429-2.4-.923-3.6-2.3-3.308-3.771a3.187,3.187,0,0,1,3.026-2.4c2.615.07,3.106,1.657,3.132,1.746a.733.733,0,0,0,1.42-.361,4.142,4.142,0,0,0-3.8-2.8v-2a.733.733,0,1,0-1.464,0v2a4.659,4.659,0,0,0-3.748,3.527c-.213,1.061-.226,3.721,4.216,5.427,2.4.923,3.6,2.3,3.308,3.773a3.209,3.209,0,0,1-3.024,2.4c-2.633-.07-3.113-1.679-3.129-1.738a.733.733,0,0,0-1.423.352A4.148,4.148,0,0,0,214.71,227.818Z" transform="translate(-136.448 -156.171)" fill="#fff"/>
  </g>
</svg>
