<svg xmlns="http://www.w3.org/2000/svg" width="60.943" height="61.175" viewBox="0 0 60.943 61.175">
  <g id="Group_9910" data-name="Group 9910" transform="translate(-1496.593 -9571.648)">
    <path id="Path_19621" data-name="Path 19621" d="M30.471,0A30.471,30.471,0,1,1,0,30.471,30.471,30.471,0,0,1,30.471,0Z" transform="translate(1496.593 9571.648)" fill="#fff"/>
    <path id="Path_19608" data-name="Path 19608" d="M24.445,60.843V34.885H17.831c-.406,0-.541-.114-.541-.541v-7.28c0-.489.156-.572.593-.572H23.9c.458,0,.562-.135.551-.562V20.18A11.5,11.5,0,0,1,26.348,13.6a9.422,9.422,0,0,1,6.781-3.921,37.689,37.689,0,0,1,7.1,0,1.518,1.518,0,0,1,.229,0c1.04.1,1.04.1,1.04,1.2v5.886c0,.406-.114.52-.51.52H36.384a4.067,4.067,0,0,0-.946.125,2.746,2.746,0,0,0-2.319,2.818c-.083,1.966,0,3.931-.062,5.886,0,.354.218.333.458.333h7.072c.634,0,.634,0,.551.624q-.468,3.64-.926,7.28c0,.354-.187.447-.53.447H33.628c-.354,0-.468.1-.468.458v26A32.094,32.094,0,0,1,24.445,60.843Z" transform="translate(1496.556 9571.445)" fill="#2a007a"/>
  </g>
</svg>
